<?xml version="1.0" encoding="utf-8"?>
<!-- Generator: Adobe Illustrator 22.0.0, SVG Export Plug-In . SVG Version: 6.00 Build 0)  -->
<svg version="1.1" id="artwork" xmlns="http://www.w3.org/2000/svg" xmlns:xlink="http://www.w3.org/1999/xlink" x="0px" y="0px"
	 viewBox="0 0 139 44" style="enable-background:new 0 0 139 44;" xml:space="preserve">
<style type="text/css">
	.st0{fill:#A6A6A6;}
	.st1{fill:#FFFFFF;stroke:#FFFFFF;stroke-width:0.2;stroke-miterlimit:10;}
	.st2{fill:#FFFFFF;}
	.st3{fill:url(#SVGID_1_);}
	.st4{fill:url(#SVGID_2_);}
	.st5{fill:url(#SVGID_3_);}
	.st6{fill:url(#SVGID_4_);}
	.st7{opacity:0.2;enable-background:new    ;}
	.st8{opacity:0.12;enable-background:new    ;}
	.st9{opacity:0.25;fill:#FFFFFF;enable-background:new    ;}
</style>
<g>
	<g>
		<g>
			<path d="M132,42H7c-2.8,0-5-2.3-5-5V7c0-2.8,2.3-5,5-5h125c2.8,0,5,2.3,5,5v30C137,39.7,134.8,42,132,42z"/>
		</g>
		<g>
			<g>
				<path class="st0" d="M132,2.8c2.3,0,4.2,1.9,4.2,4.2v30c0,2.3-1.9,4.2-4.2,4.2H7c-2.3,0-4.2-1.9-4.2-4.2V7
					c0-2.3,1.9-4.2,4.2-4.2H132 M132,2H7C4.3,2,2,4.3,2,7v30c0,2.8,2.3,5,5,5h125c2.8,0,5-2.3,5-5V7C137,4.3,134.8,2,132,2L132,2z"
					/>
			</g>
		</g>
		<g>
			<path class="st1" d="M49.4,12.2c0,0.8-0.2,1.5-0.7,2c-0.6,0.6-1.3,0.9-2.2,0.9c-0.9,0-1.6-0.3-2.2-0.9c-0.6-0.6-0.9-1.3-0.9-2.2
				c0-0.9,0.3-1.6,0.9-2.2c0.6-0.6,1.3-0.9,2.2-0.9c0.4,0,0.8,0.1,1.2,0.3c0.4,0.2,0.7,0.4,0.9,0.7l-0.5,0.5
				c-0.4-0.5-0.9-0.7-1.6-0.7c-0.6,0-1.2,0.2-1.6,0.7c-0.5,0.4-0.7,1-0.7,1.7s0.2,1.3,0.7,1.7c0.5,0.4,1,0.7,1.6,0.7
				c0.7,0,1.2-0.2,1.7-0.7c0.3-0.3,0.5-0.7,0.5-1.2h-2.2v-0.7h2.9C49.4,11.9,49.4,12.1,49.4,12.2z"/>
			<path class="st1" d="M54,9.7h-2.7v1.9h2.5v0.7h-2.5v1.9H54V15h-3.5V9H54V9.7z"/>
			<path class="st1" d="M57.3,15h-0.8V9.7h-1.7V9H59v0.7h-1.7V15z"/>
			<path class="st1" d="M61.9,15V9h0.8v6H61.9z"/>
			<path class="st1" d="M66.1,15h-0.8V9.7h-1.7V9h4.1v0.7h-1.7V15z"/>
			<path class="st1" d="M75.6,14.2c-0.6,0.6-1.3,0.9-2.2,0.9c-0.9,0-1.6-0.3-2.2-0.9c-0.6-0.6-0.9-1.3-0.9-2.2s0.3-1.6,0.9-2.2
				c0.6-0.6,1.3-0.9,2.2-0.9c0.9,0,1.6,0.3,2.2,0.9c0.6,0.6,0.9,1.3,0.9,2.2C76.5,12.9,76.2,13.6,75.6,14.2z M71.8,13.7
				c0.4,0.4,1,0.7,1.6,0.7s1.2-0.2,1.6-0.7c0.4-0.4,0.7-1,0.7-1.7s-0.2-1.3-0.7-1.7c-0.4-0.4-1-0.7-1.6-0.7s-1.2,0.2-1.6,0.7
				c-0.4,0.4-0.7,1-0.7,1.7S71.3,13.3,71.8,13.7z"/>
			<path class="st1" d="M77.6,15V9h0.9l2.9,4.7h0l0-1.2V9h0.8v6h-0.8l-3.1-4.9h0l0,1.2V15H77.6z"/>
		</g>
		<path class="st2" d="M70.1,23.8c-2.4,0-4.3,1.8-4.3,4.3c0,2.4,1.9,4.3,4.3,4.3c2.4,0,4.3-1.8,4.3-4.3
			C74.4,25.5,72.5,23.8,70.1,23.8z M70.1,30.6c-1.3,0-2.4-1.1-2.4-2.6c0-1.5,1.1-2.6,2.4-2.6c1.3,0,2.4,1,2.4,2.6
			C72.5,29.5,71.4,30.6,70.1,30.6z M60.8,23.8c-2.4,0-4.3,1.8-4.3,4.3c0,2.4,1.9,4.3,4.3,4.3c2.4,0,4.3-1.8,4.3-4.3
			C65.1,25.5,63.2,23.8,60.8,23.8z M60.8,30.6c-1.3,0-2.4-1.1-2.4-2.6c0-1.5,1.1-2.6,2.4-2.6c1.3,0,2.4,1,2.4,2.6
			C63.2,29.5,62.1,30.6,60.8,30.6z M49.7,25.1v1.8h4.3c-0.1,1-0.5,1.8-1,2.3c-0.6,0.6-1.6,1.3-3.3,1.3c-2.7,0-4.7-2.1-4.7-4.8
			s2.1-4.8,4.7-4.8c1.4,0,2.5,0.6,3.3,1.3l1.3-1.3c-1.1-1-2.5-1.8-4.5-1.8c-3.6,0-6.7,3-6.7,6.6c0,3.6,3.1,6.6,6.7,6.6
			c2,0,3.4-0.6,4.6-1.9c1.2-1.2,1.6-2.9,1.6-4.2c0-0.4,0-0.8-0.1-1.1H49.7z M95.1,26.5c-0.4-1-1.4-2.7-3.6-2.7c-2.2,0-4,1.7-4,4.3
			c0,2.4,1.8,4.3,4.2,4.3c1.9,0,3.1-1.2,3.5-1.9l-1.4-1c-0.5,0.7-1.1,1.2-2.1,1.2c-1,0-1.6-0.4-2.1-1.3l5.7-2.4L95.1,26.5z
			 M89.3,27.9c0-1.6,1.3-2.5,2.2-2.5c0.7,0,1.4,0.4,1.6,0.9L89.3,27.9z M84.6,32h1.9V19.5h-1.9V32z M81.6,24.7L81.6,24.7
			c-0.5-0.5-1.3-1-2.3-1c-2.1,0-4.1,1.9-4.1,4.3c0,2.4,1.9,4.2,4.1,4.2c1,0,1.8-0.5,2.2-1h0.1v0.6c0,1.6-0.9,2.5-2.3,2.5
			c-1.1,0-1.9-0.8-2.1-1.5l-1.6,0.7c0.5,1.1,1.7,2.5,3.8,2.5c2.2,0,4-1.3,4-4.4V24h-1.8V24.7z M79.4,30.6c-1.3,0-2.4-1.1-2.4-2.6
			c0-1.5,1.1-2.6,2.4-2.6c1.3,0,2.3,1.1,2.3,2.6C81.7,29.5,80.7,30.6,79.4,30.6z M103.8,19.5h-4.5V32h1.9v-4.7h2.6
			c2.1,0,4.1-1.5,4.1-3.9S105.9,19.5,103.8,19.5z M103.9,25.5h-2.7v-4.3h2.7c1.4,0,2.2,1.2,2.2,2.1C106,24.4,105.2,25.5,103.9,25.5z
			 M115.4,23.7c-1.4,0-2.8,0.6-3.3,1.9l1.7,0.7c0.4-0.7,1-0.9,1.7-0.9c1,0,1.9,0.6,2,1.6v0.1c-0.3-0.2-1.1-0.5-1.9-0.5
			c-1.8,0-3.6,1-3.6,2.8c0,1.7,1.5,2.8,3.1,2.8c1.3,0,1.9-0.6,2.4-1.2h0.1v1h1.8v-4.8C119.2,25,117.5,23.7,115.4,23.7z M115.2,30.6
			c-0.6,0-1.5-0.3-1.5-1.1c0-1,1.1-1.3,2-1.3c0.8,0,1.2,0.2,1.7,0.4C117.2,29.8,116.2,30.6,115.2,30.6z M125.7,24l-2.1,5.4h-0.1
			l-2.2-5.4h-2l3.3,7.6l-1.9,4.2h1.9l5.1-11.8H125.7z M108.9,32h1.9V19.5h-1.9V32z"/>
		<g>
			
				<linearGradient id="SVGID_1_" gradientUnits="userSpaceOnUse" x1="23.7997" y1="175.2903" x2="7.0173" y2="158.5079" gradientTransform="matrix(1 0 0 -1 0 186)">
				<stop  offset="0" style="stop-color:#00A0FF"/>
				<stop  offset="6.574450e-03" style="stop-color:#00A1FF"/>
				<stop  offset="0.2601" style="stop-color:#00BEFF"/>
				<stop  offset="0.5122" style="stop-color:#00D2FF"/>
				<stop  offset="0.7604" style="stop-color:#00DFFF"/>
				<stop  offset="1" style="stop-color:#00E3FF"/>
			</linearGradient>
			<path class="st3" d="M12.4,9.5c-0.3,0.3-0.5,0.8-0.5,1.4v22.1c0,0.6,0.2,1.1,0.5,1.4l0.1,0.1l12.4-12.4V22v-0.1L12.4,9.5
				L12.4,9.5z"/>
			
				<linearGradient id="SVGID_2_" gradientUnits="userSpaceOnUse" x1="35.8344" y1="163.9986" x2="11.6375" y2="163.9986" gradientTransform="matrix(1 0 0 -1 0 186)">
				<stop  offset="0" style="stop-color:#FFE000"/>
				<stop  offset="0.4087" style="stop-color:#FFBD00"/>
				<stop  offset="0.7754" style="stop-color:#FFA500"/>
				<stop  offset="1" style="stop-color:#FF9C00"/>
			</linearGradient>
			<path class="st4" d="M29,26.3l-4.1-4.1V22v-0.1l4.1-4.1l0.1,0.1l4.9,2.8c1.4,0.8,1.4,2.1,0,2.9L29,26.3L29,26.3z"/>
			
				<linearGradient id="SVGID_3_" gradientUnits="userSpaceOnUse" x1="26.827" y1="161.7039" x2="4.0687" y2="138.9456" gradientTransform="matrix(1 0 0 -1 0 186)">
				<stop  offset="0" style="stop-color:#FF3A44"/>
				<stop  offset="1" style="stop-color:#C31162"/>
			</linearGradient>
			<path class="st5" d="M29.1,26.2L24.9,22L12.4,34.5c0.5,0.5,1.2,0.5,2.1,0.1L29.1,26.2"/>
			
				<linearGradient id="SVGID_4_" gradientUnits="userSpaceOnUse" x1="9.2973" y1="183.8238" x2="19.4599" y2="173.6613" gradientTransform="matrix(1 0 0 -1 0 186)">
				<stop  offset="0" style="stop-color:#32A071"/>
				<stop  offset="6.850000e-02" style="stop-color:#2DA771"/>
				<stop  offset="0.4762" style="stop-color:#15CF74"/>
				<stop  offset="0.8009" style="stop-color:#06E775"/>
				<stop  offset="1" style="stop-color:#00F076"/>
			</linearGradient>
			<path class="st6" d="M29.1,17.8L14.5,9.5c-0.9-0.5-1.6-0.4-2.1,0.1L24.9,22L29.1,17.8z"/>
			<g>
				<path class="st7" d="M29,26.1l-14.5,8.2c-0.8,0.5-1.5,0.4-2,0l0,0l-0.1,0.1l0,0l0.1,0.1l0,0c0.5,0.4,1.2,0.5,2,0L29,26.1
					L29,26.1z"/>
				<path class="st8" d="M12.4,34.3C12.1,34,12,33.5,12,32.9v0.1c0,0.6,0.2,1.1,0.5,1.4V34.3L12.4,34.3z"/>
			</g>
			<path class="st8" d="M34,23.3l-5,2.8l0.1,0.1l4.9-2.8c0.7-0.4,1-0.9,1-1.4l0,0C35,22.5,34.6,22.9,34,23.3z"/>
			<path class="st9" d="M14.5,9.6L34,20.7c0.6,0.4,1,0.8,1,1.3l0,0c0-0.5-0.3-1-1-1.4L14.5,9.5C13.1,8.7,12,9.3,12,10.9v0.1
				C12,9.5,13.1,8.8,14.5,9.6z"/>
		</g>
	</g>
</g>
</svg>
